# xmcd CD Database Entry
#
# Track frame offsets:
# 150
# 19049
# 33366
# 49716
# 64885
# 79342
# 93655
# 105523
# 124900
# 143566
# 154215
# 173954
#
# Disc length: 2499 seconds
#
# Revision: 3
# Processed by: cddbd v1.4PL0 Copyright (c) Steve Scherf et al.
# Submitted via: tcd 2.0b
#
DISCID=9d09c10c
DTITLE=The Schwillbillies - Ghost Train
DYEAR=1900
DGENRE=
TTITLE0=Ghost Train
TTITLE1=All Kill All
TTITLE2=Whiskey And Rye
TTITLE3=Moe And Johnny
TTITLE4=Big Ole John
TTITLE5=Gris' For The Mill
TTITLE6=Two Dollar Bill
TTITLE7=Shorta QP
TTITLE8=Whiskey Man
TTITLE9=Ranjer's Breakdown
TTITLE10=Little Maggie
TTITLE11=Only Time Will Tell
EXTD=www.theschwillbillies.net\n2003\nBanjer - banjo, vocals\nGeet
EXTD=er: guitar, vocals\nNorton Lil' Sloppy Fellar: mandolin, fidd
EXTD=le, vocals\nKracker: doghouse bass, vocals\nSqueezer Nimoy Ma
EXTD=cGyver: saw on track1, accordian and vocals on track 3\nPee P
EXTD=aw Hackensaw: fiddle on tracks 2,4,5,6,8 and vocals on track 
EXTD=7
EXTT0=
EXTT1=
EXTT2=
EXTT3=
EXTT4=
EXTT5=
EXTT6=
EXTT7=
EXTT8=
EXTT9=
EXTT10=
EXTT11=
PLAYORDER=
